<svg height="512pt" viewBox="0 -11 512 512" width="512pt" xmlns="http://www.w3.org/2000/svg"><path d="m404.941406 59.410156c-42.917968-37.019531-98.8125-59.410156-159.941406-59.410156-61.125 0-117.019531 22.390625-159.941406 59.410156zm0 0" fill="#00c82f"/><path d="m102.941406 424.457031 2.382813 21.824219c39.625 27.550781 87.757812 43.71875 139.675781 43.71875 64.429688 0 123.035156-24.882812 166.773438-65.542969zm0 0" fill="#2b3894"/><path d="m264.960938 489.183594c56.53125-4.5625 107.636718-28.308594 146.8125-64.730469h-148.132813c26.425781 11.429687 27.414063 52.40625 1.320313 64.730469zm0 0" fill="#232e7a"/><path d="m444.445312 57.410156h-357.019531c-7.859375 6.609375-15.28125 13.710938-22.253906 21.242188l35.902344 328.703125h367.347656v-325.972657c0-13.183593-10.789063-23.972656-23.976563-23.972656zm0 0" fill="#2b3894"/><path d="m98.933594 68.410156c0-4.878906 2.886718-9.046875 6.964844-11h-18.472657c-7.859375 6.609375-15.28125 13.710938-22.253906 21.242188l.046875.410156h39.988281c-3.738281-2.085938-6.273437-6.078125-6.273437-10.652344zm0 0" fill="#232e7a"/><path d="m448.160156 381.976562v-227.113281h-431.042968c-11.046876 27.902344-17.117188 58.308594-17.117188 90.136719 0 62.28125 23.253906 119.128906 61.535156 162.355469h366.929688c7.09375-8.011719 13.6875-16.484375 19.695312-25.378907zm0 0" fill="#e6f7fe"/><path d="m103.054688 154.863281h-85.9375c-11.046876 27.902344-17.117188 58.308594-17.117188 90.136719 0 62.28125 23.253906 119.128906 61.535156 162.355469h41.519532zm0 0" fill="#d5f1fe"/><path d="m444.082031 77.667969h-378.015625c-14.859375 15.882812-27.625 33.742187-37.863281 53.144531h419.957031v-49.066406c0-2.25-1.824218-4.078125-4.078125-4.078125zm0 0" fill="#615df9"/><path d="m103.054688 77.667969h-36.988282c-14.859375 15.882812-27.625 33.742187-37.863281 53.144531h74.851563zm0 0" fill="#3d4ec6"/><path d="m64.726562 113.121094c-5.582031 0-10.128906-4.546875-10.128906-10.128906 0-6.308594 5.796875-11.203126 12.113282-9.925782 4.597656.863282 8.144531 5.019532 8.144531 9.925782 0 5.675781-4.632813 10.128906-10.128907 10.128906zm0 0" fill="#39df74"/><path d="m416.269531 111.0625h-53.347656c-4.195313 0-7.597656-3.402344-7.597656-7.597656 0-4.195313 3.402343-7.597656 7.597656-7.597656h53.347656c4.195313 0 7.597657 3.402343 7.597657 7.597656 0 4.195312-3.402344 7.597656-7.597657 7.597656zm0 0" fill="#aeaeff"/><path d="m324.757812 111.0625h-219.871093c-4.195313 0-7.597657-3.402344-7.597657-7.597656 0-4.195313 3.402344-7.597656 7.597657-7.597656h219.871093c4.195313 0 7.597657 3.402343 7.597657 7.597656 0 4.195312-3.402344 7.597656-7.597657 7.597656zm0 0" fill="#aeaeff"/><path d="m274.636719 103.464844c0-4.195313 3.402343-7.597656 7.597656-7.597656h-177.347656c-4.195313 0-7.597657 3.402343-7.597657 7.597656 0 4.195312 3.402344 7.597656 7.597657 7.597656h177.347656c-4.195313 0-7.597656-3.402344-7.597656-7.597656zm0 0" fill="#8181fc"/><path d="m59.738281 405.328125c13.695313 15.808594 29.386719 29.835937 46.667969 41.714844h277.1875c17.28125-11.878907 32.972656-25.90625 46.667969-41.714844-92.355469 0-252.097657 0-370.523438 0zm0 0" fill="#aeaeff"/><path d="m163.757812 436.613281c0-5.914062 4.492188-10.777343 10.25-11.367187v-19.917969c-39.84375 0-78.898437 0-114.269531 0 13.695313 15.808594 29.386719 29.835937 46.667969 41.710937h64.121094c-3.988282-1.78125-6.769532-5.773437-6.769532-10.425781zm0 0" fill="#8181fc"/><path d="m112.429688 405.328125v8.703125c0 6.683594 5.46875 12.15625 12.15625 12.15625h164.078124c6.6875 0 12.15625-5.472656 12.15625-12.15625v-8.703125c-58.601562 0-125.824218 0-188.390624 0zm0 0" fill="#8181fc"/><path d="m160.070312 414.03125v-8.703125c-16.03125 0-31.980468 0-47.640624 0v8.703125c0 6.683594 5.46875 12.152344 12.15625 12.152344h47.640624c-6.683593 0-12.15625-5.46875-12.15625-12.152344zm0 0" fill="#615df9"/><path d="m16.339844 156.890625h431.820312v-28.105469h-418.890625c-4.878906 9.042969-9.199219 18.425782-12.929687 28.105469zm0 0" fill="#d5f1fe"/><path d="m103.054688 128.785156h-73.785157c-4.878906 9.039063-9.199219 18.425782-12.929687 28.105469h86.714844zm0 0" fill="#11dfef"/><path d="m64.730469 156.890625c0-15.523437-12.582031-28.105469-28.101563-28.105469h-7.355468c-4.882813 9.042969-9.203126 18.425782-12.933594 28.105469zm0 0" fill="#0ac6e5"/><path d="m487.628906 149.378906h-138.5c-13.4375 0-24.371094 10.933594-24.371094 24.375v291.875c0 13.4375 10.933594 24.371094 24.371094 24.371094h138.5c13.4375 0 24.371094-10.933594 24.371094-24.371094v-291.875c0-13.441406-10.933594-24.375-24.371094-24.375zm0 0" fill="#3d4ec6"/><path d="m375.621094 475.082031v-294.964843c0-5.359376-1.9375-10.445313-5.050782-14.808594-1.246093-1.742188-1.976562-3.875-1.976562-6.183594 0-4.34375 2.59375-8.070312 6.3125-9.742188h-25.773438c-13.460937 0-24.375 10.910157-24.375 24.371094v291.875c0 13.460938 10.914063 24.371094 24.371094 24.371094h23.117188c-1.992188-1.542969-3.28125-3.953125-3.28125-6.667969 0-4.050781 2.851562-7.429687 6.65625-8.25zm0 0" fill="#3342ae"/><path d="m497.890625 173.753906c0-5.667968-4.59375-10.265625-10.261719-10.265625h-20.585937c-1.941407 0-3.515625 1.574219-3.515625 3.515625 0 4.65625-3.808594 8.464844-8.464844 8.464844h-73.371094c-4.65625 0-8.464844-3.808594-8.464844-8.464844 0-1.941406-1.574218-3.515625-3.511718-3.515625h-20.585938c-5.667968 0-10.261718 4.597657-10.261718 10.265625v291.875c0 5.667969 4.59375 10.261719 10.261718 10.261719h138.5c5.667969 0 10.261719-4.59375 10.261719-10.261719 0-10.335937 0-281.28125 0-291.875zm0 0" fill="#e6f7fe"/><path d="m373.222656 166.964844c-.019531-1.921875-1.582031-3.476563-3.507812-3.476563h-20.585938c-5.667968 0-10.261718 4.597657-10.261718 10.265625v291.875c0 5.667969 4.59375 10.261719 10.261718 10.261719h24.09375c0-86.390625 0-221.285156 0-308.925781zm0 0" fill="#86fdfb"/><path d="m381.152344 207.792969h-16.183594c-4.195312 0-7.597656-3.402344-7.597656-7.597657 0-4.195312 3.402344-7.597656 7.597656-7.597656h16.183594c4.195312 0 7.597656 3.402344 7.597656 7.597656 0 4.195313-3.402344 7.597657-7.597656 7.597657zm0 0" fill="#11dfef"/><path d="m405.550781 351.132812h-16.183593c-4.195313 0-7.597657-3.402343-7.597657-7.597656 0-4.195312 3.402344-7.597656 7.597657-7.597656h16.183593c4.195313 0 7.597657 3.402344 7.597657 7.597656 0 4.195313-3.402344 7.597656-7.597657 7.597656zm0 0" fill="#39df74"/><path d="m447.390625 351.132812h-16.183594c-4.195312 0-7.597656-3.402343-7.597656-7.597656 0-4.195312 3.402344-7.597656 7.597656-7.597656h16.183594c4.195313 0 7.59375 3.402344 7.59375 7.597656 0 4.195313-3.398437 7.597656-7.59375 7.597656zm0 0" fill="#27a3ff"/><path d="m190.519531 347.585938h-20.320312c-5.59375 0-10.128907-4.535157-10.128907-10.128907s4.535157-10.128906 10.128907-10.128906h20.320312c5.59375 0 10.128907 4.535156 10.128907 10.128906s-4.535157 10.128907-10.128907 10.128907zm0 0" fill="#39df74"/><path d="m243.050781 347.585938h-20.320312c-5.59375 0-10.128907-4.535157-10.128907-10.128907s4.535157-10.128906 10.128907-10.128906h20.320312c5.59375 0 10.128907 4.535156 10.128907 10.128906s-4.535157 10.128907-10.128907 10.128907zm0 0" fill="#27a3ff"/><path d="m471.523438 300.691406v-17.550781c0-2.820313-2.289063-5.109375-5.109376-5.109375h-96.070312c-2.820312 0-5.109375 2.289062-5.109375 5.109375v17.550781c0 2.820313 2.289063 5.105469 5.109375 5.105469h96.070312c2.820313 0 5.109376-2.285156 5.109376-5.105469zm0 0" fill="#86fdfb"/><path d="m403.699219 300.691406v-17.550781c0-2.820313 2.285156-5.109375 5.105469-5.109375h-38.460938c-2.820312 0-5.109375 2.289062-5.109375 5.109375v17.550781c0 2.820313 2.289063 5.105469 5.109375 5.105469h38.460938c-2.820313 0-5.105469-2.285156-5.105469-5.105469zm0 0" fill="#11dfef"/><path d="m310.195312 300.691406v-17.550781c0-2.820313-2.285156-5.109375-5.105468-5.109375h-196.929688c-2.816406 0-5.105468 2.289062-5.105468 5.109375v17.550781c0 2.820313 2.289062 5.105469 5.105468 5.105469h196.929688c2.820312 0 5.105468-2.285156 5.105468-5.105469zm0 0" fill="#d5f1fe"/><path d="m160.070312 300.691406v-17.550781c0-2.820313 2.289063-5.109375 5.109376-5.109375h-57.019532c-2.820312 0-5.105468 2.289062-5.105468 5.109375v17.550781c0 2.820313 2.285156 5.105469 5.105468 5.105469h57.019532c-2.820313 0-5.109376-2.285156-5.109376-5.105469zm0 0" fill="#11dfef"/><g fill="#27a3ff"><path d="m466.414062 278.03125h-24.253906v27.765625h24.253906c2.820313 0 5.105469-2.285156 5.105469-5.105469v-17.550781c.003907-2.820313-2.285156-5.109375-5.105469-5.109375zm0 0"/><path d="m305.089844 278.03125h-24.253906v27.765625h24.253906c2.820312 0 5.105468-2.285156 5.105468-5.105469v-17.550781c0-2.820313-2.285156-5.109375-5.105468-5.109375zm0 0"/></g></svg>