<svg width="22" height="22" viewBox="0 0 22 22" fill="none" xmlns="http://www.w3.org/2000/svg">
<path fill-rule="evenodd" clip-rule="evenodd" d="M14.9599 13.6635L19.8982 18.6018L18.6019 19.8981L13.6636 14.9598C12.4218 15.9251 10.8614 16.5 9.16671 16.5C5.11662 16.5 1.83338 13.2167 1.83338 9.16662C1.83338 5.11653 5.11662 1.83328 9.16671 1.83328C13.2168 1.83328 16.5 5.11653 16.5 9.16662C16.5 10.8613 15.9252 12.4217 14.9599 13.6635L14.9599 13.6635ZM9.16671 14.6666C12.2043 14.6666 14.6667 12.2042 14.6667 9.16663C14.6667 6.12906 12.2043 3.66663 9.16671 3.66663C6.12914 3.66663 3.66671 6.12906 3.66671 9.16663C3.66671 12.2042 6.12914 14.6666 9.16671 14.6666V14.6666Z" fill="#B4B0AC"/>
</svg>
