<svg id="Capa_1" enable-background="new 0 0 494.177 494.177" height="512" viewBox="0 0 494.177 494.177" width="512" xmlns="http://www.w3.org/2000/svg"><g><path d="m432.655 169.688v257.41c0 4.43-1.15 8.59-3.19 12.2-1.074 1.927-4.874.969-6.406 2.538-2.005 2.053-1.891 6.488-4.504 7.752-3.29 1.61-6.99 2.51-10.9 2.51h-382.65c-2.38 0-4.68-.33-6.85-.96-3.147-.891-3.486-3.68-5.99-5.643-1.514-1.186-5.439-1.248-6.64-2.747-3.46-4.28-5.52-9.73-5.52-15.65v-257.41c0-2.17.28-4.27.8-6.27.746-2.905 5.183-1.059 6.85-3.454 1.283-1.844-.372-8.055 1.35-9.486 4.34-3.62 9.92-5.79 16-5.79h382.65c13.8 0 25 11.19 25 25z" fill="#ffe177"/><path d="m55 452.098h-30c-2.374 0-4.671-.331-6.847-.951-2.521-.717-3.092-3.72-5.221-5.141s-5.816-1.261-7.417-3.25c-3.45-4.285-5.515-9.732-5.515-15.658v-257.41c0-2.166.276-4.268.794-6.273.736-2.848 4.858-2.433 6.478-4.792 1.304-1.899-.033-6.676 1.732-8.147 4.336-3.614 9.914-5.788 15.996-5.788h30c-13.8 0-25 11.19-25 25v257.41c0 13.8 11.2 25 25 25z" fill="#ffd15b"/><path d="m89.625 239.488c-2.9 2.979-11.385-.615-11.765-.985-2.258-2.201-70.349-68.551-76.688-74.726-.123-.119-.245-.239-.368-.358.827-2.475 3.536-2.309 4.935-4.54 1.393-2.221 1.24-6.732 3.265-8.4 6.175 6.016 82.7 80.506 82.744 83.684.028 1.975-.742 3.911-2.123 5.325z" fill="#fff0ad"/><path d="m207.894 139.392h-27.803v-39.388c0-8.042-3.134-15.609-8.825-21.305-5.686-5.681-13.253-8.815-21.295-8.815-16.608 0-30.12 13.512-30.12 30.12v39.388h-27.804v-39.388c0-31.939 25.985-57.924 57.924-57.924 15.463 0 30.008 6.022 40.955 16.958 10.946 10.958 16.968 25.503 16.968 40.966z" fill="#685e68"/><path d="m165.015 44.048c-13.105 10.596-29.811 22.614-40.86 40.45-2.74 4.53-4.31 9.84-4.31 15.51v39.38h-27.8v-39.38c0-31.94 25.99-57.93 57.92-57.93 5.16 0 10.2.67 15.05 1.97z" fill="#554e56"/><path d="m215.795 350.894c-14.553 0-28.82-6.088-40.172-17.143l-72.336-70.104c-2.974-2.883-3.049-7.631-.166-10.605 2.882-2.974 7.63-3.049 10.605-.166l72.349 70.116c17.782 17.313 41.659 17.316 59.428.013l7.798-7.599c2.967-2.889 7.716-2.827 10.605.138 2.891 2.967 2.829 7.716-.138 10.606l-7.8 7.6c-11.352 11.056-25.619 17.144-40.173 17.144z" fill="#fff0ad"/><path d="m205.902 263.581h-111.863c-8.778 0-15.894-7.116-15.894-15.894v-102.596c0-8.778 7.116-15.894 15.894-15.894h111.863c8.778 0 15.894 7.116 15.894 15.894v102.596c0 8.778-7.116 15.894-15.894 15.894z" fill="#fe646f"/><path d="m164.404 230.549h-28.87c-1.61 0-2.86-1.4-2.68-2.99l4.256-37.844c.15-1.334-.187-2.658-.858-3.821-1.646-2.854-2.412-6.277-1.962-9.893.888-7.126 6.669-12.837 13.802-13.662 9.559-1.106 17.681 6.351 17.681 15.701 0 2.856-.755 5.539-2.087 7.85-.671 1.164-1.011 2.488-.86 3.823l4.257 37.847c.181 1.589-1.069 2.989-2.679 2.989z" fill="#554e56"/><path d="m124.035 263.578h-30c-8.77 0-15.89-7.11-15.89-15.89v-102.6c0-8.77 7.12-15.89 15.89-15.89h30c-8.77 0-15.89 7.12-15.89 15.89v102.6c0 8.78 7.12 15.89 15.89 15.89z" fill="#fd4755"/><path d="m429.465 439.298c-2.48 4.45-6.3 8.06-10.91 10.29l-81.93-90.66c-2.78-3.07-2.54-7.82.53-10.59 3.08-2.78 7.82-2.54 10.59.53z" fill="#fff0ad"/><path d="m340.846 248.088c-1.952 0-3.902-.758-5.373-2.267-2.89-2.967-2.829-7.715.138-10.605l65-63.33c2.967-2.889 7.715-2.828 10.606.139 2.89 2.967 2.829 7.715-.138 10.605l-65 63.33c-1.458 1.42-3.346 2.128-5.233 2.128z" fill="#fff0ad"/><path d="m367.372 312.114-52.27 86.67c-2.16 3.59-7.36 3.59-9.52 0l-52.27-86.67c-2.23-3.7.44-8.43 4.76-8.43h16.781c2.756 0 4.989-2.234 4.989-4.989v-166.531c0-3.579 2.901-6.48 6.48-6.48h48.86c3.126 0 5.66 2.534 5.66 5.66v167.351c0 2.756 2.234 4.989 4.989 4.989h16.781c4.32 0 6.99 4.73 4.76 8.43z" fill="#fe646f"/><path d="m325.345 381.808-10.24 16.98c-2.16 3.59-7.36 3.59-9.52 0l-52.27-86.67c-2.23-3.7.44-8.43 4.76-8.43h16.78c2.75 0 4.99-2.24 4.99-4.99v-166.53c0-3.58 2.9-6.48 6.48-6.48h30c-3.58 0-6.48 2.9-6.48 6.48v166.53c0 2.75-2.24 4.99-4.99 4.99h-16.78c-4.32 0-6.99 4.73-4.76 8.43z" fill="#fd4755"/><path d="m488.612 171.684h-16.781c-2.756 0-4.989 2.234-4.989 4.989v166.531c0 3.579-2.901 6.48-6.48 6.48h-48.86c-3.126 0-5.66-2.534-5.66-5.66v-167.35c0-2.756-2.234-4.989-4.989-4.989h-16.781c-4.32 0-6.99-4.73-4.76-8.43l52.27-86.67c2.16-3.59 7.36-3.59 9.52 0l52.27 86.67c2.23 3.699-.44 8.429-4.76 8.429z" fill="#a2f4c1"/><path d="m441.505 349.688h-30c-3.13 0-5.66-2.54-5.66-5.66v-167.35c0-2.76-2.24-4.99-4.99-4.99h-16.78c-4.32 0-6.99-4.73-4.76-8.43l52.27-86.67c2.16-3.59 7.36-3.59 9.52 0l10.24 16.98-42.03 69.69c-2.23 3.7.44 8.43 4.76 8.43h16.78c2.75 0 4.99 2.23 4.99 4.99v167.35c0 3.12 2.53 5.66 5.66 5.66z" fill="#78d0b1"/><path d="m153.465 301.418c-1.332 1.474-2.664 2.947-3.995 4.421-3.58 3.961-125.456 138.813-129.396 143.175-.64.708-1.279 1.416-1.919 2.124-.628-.179 1.978-5.03-.032-6.621-.02 0-4.66-.618-4.66-.638-1.513-1.155-6.742.345-7.938-1.13 5.009-5.543 130.809-144.74 134.38-148.691.743-.822 1.483-1.647 2.229-2.466 3.184-3.496 8.792-3.642 11.757.281 2.143 2.834 1.959 6.912-.426 9.545z" fill="#fff0ad"/><g fill="#ffe177"><path d="m31.695 436.148-13.54 14.99c-.628-.179-1.264-.37-1.87-.61-2.397-.904-4.66-2.149-6.67-3.74-.02 0-.03 0-.03-.02-1.513-1.155-2.863-2.544-4.06-4.02l24.47-27.08v8.228c0 4.2.134 8.266 1.7 12.252z"/><path d="m29.995 170.928v20.93c-3.314-3.229-28.01-27.287-29.19-28.44.827-2.475 1.631-4.803 3.03-7.034 1.393-2.221 3.144-4.238 5.17-5.907z"/></g></g></svg>